<svg width="1000" height="825" viewBox="0 0 1000 825" fill="none" xmlns="http://www.w3.org/2000/svg">
<g clip-path="url(#clip0_20_2)">
<rect width="1000" height="825" fill="white"/>
<g filter="url(#filter0_f_20_2)">
<circle cx="104" cy="64" r="136" fill="#ED02AA"/>
<path d="M492 318C492 432.875 218.875 526 104 526C-10.8752 526 -104 432.875 -104 318C-104 203.125 13.1248 70 128 70C242.875 70 492 203.125 492 318Z" fill="#ED5A02"/>
<circle cx="104" cy="600" r="166" fill="#F70237"/>
<path d="M622 110C622 231.503 649.503 486 528 486C406.497 486 182 231.503 182 110C182 -11.5026 280.497 -110 402 -110C523.503 -110 622 -11.5026 622 110Z" fill="#F70237"/>
<circle cx="704" cy="88" r="144" fill="#20C983"/>
<path d="M1088 120.884C1088 240.177 843.294 336.884 724 336.884C604.706 336.884 508 240.177 508 120.884C508 1.59041 604.706 -95.1161 724 -95.1161C843.294 -95.1161 1088 1.59041 1088 120.884Z" fill="#ED02AA"/>
<circle cx="646" cy="362" r="202" fill="#E01E0D"/>
<path d="M828 450C828 588.623 540.623 734 402 734C263.377 734 151 621.623 151 483C151 344.376 176 62 402 232C540.623 232 828 311.377 828 450Z" fill="#F73B02"/>
<circle cx="847.5" cy="465.5" r="233.5" fill="#ED5A02"/>
<path d="M1145 652.5C1145 830.612 1000.61 975 822.5 975C644.388 975 380 810 588 622C588 443.888 644.388 330 822.5 330C1000.61 330 1145 474.388 1145 652.5Z" fill="#F70237"/>
<path d="M460 693.5C460 868.85 455.85 1011 280.5 1011C105.15 1011 -37 868.85 -37 693.5C-37 518.15 105.15 410 280.5 410C455.85 410 460 518.15 460 693.5Z" fill="#E01E0D"/>
</g>
<path d="M338.504 217.2V262H332.104V242.032H306.376V262H299.976V217.2H306.376V236.464H332.104V217.2H338.504ZM365.98 262.384C362.609 262.384 359.58 261.637 356.892 260.144C354.204 258.651 352.092 256.603 350.556 254C349.063 251.355 348.316 248.368 348.316 245.04C348.316 241.712 349.063 238.747 350.556 236.144C352.092 233.499 354.204 231.451 356.892 230C359.58 228.507 362.609 227.76 365.98 227.76C369.351 227.76 372.359 228.507 375.004 230C377.692 231.451 379.783 233.499 381.276 236.144C382.812 238.747 383.58 241.712 383.58 245.04C383.58 248.368 382.812 251.355 381.276 254C379.783 256.603 377.692 258.651 375.004 260.144C372.359 261.637 369.351 262.384 365.98 262.384ZM365.98 257.008C368.156 257.008 370.097 256.517 371.804 255.536C373.553 254.512 374.919 253.104 375.9 251.312C376.881 249.477 377.372 247.387 377.372 245.04C377.372 242.693 376.881 240.624 375.9 238.832C374.919 236.997 373.553 235.589 371.804 234.608C370.097 233.627 368.156 233.136 365.98 233.136C363.804 233.136 361.841 233.627 360.092 234.608C358.385 235.589 357.02 236.997 355.996 238.832C355.015 240.624 354.524 242.693 354.524 245.04C354.524 247.387 355.015 249.477 355.996 251.312C357.02 253.104 358.385 254.512 360.092 255.536C361.841 256.517 363.804 257.008 365.98 257.008ZM415.556 244.4C419.951 245.509 422.148 248.261 422.148 252.656C422.148 255.643 421.017 257.947 418.756 259.568C416.537 261.189 413.209 262 408.772 262H392.452V228.08H408.196C412.207 228.08 415.343 228.848 417.604 230.384C419.865 231.877 420.996 234.011 420.996 236.784C420.996 238.576 420.505 240.133 419.524 241.456C418.585 242.736 417.263 243.717 415.556 244.4ZM398.468 242.672H407.684C410.031 242.672 411.801 242.245 412.996 241.392C414.233 240.539 414.852 239.301 414.852 237.68C414.852 234.437 412.463 232.816 407.684 232.816H398.468V242.672ZM408.324 257.264C410.884 257.264 412.804 256.859 414.084 256.048C415.364 255.237 416.004 253.979 416.004 252.272C416.004 250.523 415.407 249.221 414.212 248.368C413.06 247.515 411.225 247.088 408.708 247.088H398.468V257.264H408.324ZM446.293 262.384C442.922 262.384 439.893 261.637 437.205 260.144C434.517 258.651 432.405 256.603 430.869 254C429.375 251.355 428.629 248.368 428.629 245.04C428.629 241.712 429.375 238.747 430.869 236.144C432.405 233.499 434.517 231.451 437.205 230C439.893 228.507 442.922 227.76 446.293 227.76C449.663 227.76 452.671 228.507 455.317 230C458.005 231.451 460.095 233.499 461.589 236.144C463.125 238.747 463.893 241.712 463.893 245.04C463.893 248.368 463.125 251.355 461.589 254C460.095 256.603 458.005 258.651 455.317 260.144C452.671 261.637 449.663 262.384 446.293 262.384ZM446.293 257.008C448.469 257.008 450.41 256.517 452.117 255.536C453.866 254.512 455.231 253.104 456.213 251.312C457.194 249.477 457.685 247.387 457.685 245.04C457.685 242.693 457.194 240.624 456.213 238.832C455.231 236.997 453.866 235.589 452.117 234.608C450.41 233.627 448.469 233.136 446.293 233.136C444.117 233.136 442.154 233.627 440.405 234.608C438.698 235.589 437.333 236.997 436.309 238.832C435.327 240.624 434.837 242.693 434.837 245.04C434.837 247.387 435.327 249.477 436.309 251.312C437.333 253.104 438.698 254.512 440.405 255.536C442.154 256.517 444.117 257.008 446.293 257.008ZM487.549 262.384C484.093 262.384 480.999 261.637 478.269 260.144C475.581 258.651 473.469 256.603 471.933 254C470.397 251.355 469.629 248.368 469.629 245.04C469.629 241.712 470.397 238.747 471.933 236.144C473.469 233.499 475.581 231.451 478.269 230C480.999 228.507 484.093 227.76 487.549 227.76C490.621 227.76 493.351 228.379 495.741 229.616C498.173 230.853 500.05 232.645 501.373 234.992L496.701 238C495.634 236.379 494.311 235.163 492.733 234.352C491.154 233.541 489.405 233.136 487.485 233.136C485.266 233.136 483.261 233.627 481.469 234.608C479.719 235.589 478.333 236.997 477.309 238.832C476.327 240.624 475.837 242.693 475.837 245.04C475.837 247.429 476.327 249.541 477.309 251.376C478.333 253.168 479.719 254.555 481.469 255.536C483.261 256.517 485.266 257.008 487.485 257.008C489.405 257.008 491.154 256.603 492.733 255.792C494.311 254.981 495.634 253.765 496.701 252.144L501.373 255.088C500.05 257.435 498.173 259.248 495.741 260.528C493.351 261.765 490.621 262.384 487.549 262.384ZM534.17 233.456H521.753V262H515.61V233.456H503.194V228.08H534.17V233.456ZM540.452 228.08H546.596V252.784L567.396 228.08H572.964V262H566.82V237.296L546.084 262H540.452V228.08Z" fill="white"/>
<path d="M449.04 317.4H453.84V351H449.04V317.4ZM470.571 321.576H459.051V317.4H486.843V321.576H475.323V351H470.571V321.576Z" fill="white"/>
</g>
<defs>
<filter id="filter0_f_20_2" x="-304" y="-310" width="1649" height="1521" filterUnits="userSpaceOnUse" color-interpolation-filters="sRGB">
<feFlood flood-opacity="0" result="BackgroundImageFix"/>
<feBlend mode="normal" in="SourceGraphic" in2="BackgroundImageFix" result="shape"/>
<feGaussianBlur stdDeviation="100" result="effect1_foregroundBlur_20_2"/>
</filter>
<clipPath id="clip0_20_2">
<rect width="1000" height="825" fill="white"/>
</clipPath>
</defs>
</svg>
