<svg width="1000" height="825" viewBox="0 0 1000 825" fill="none" xmlns="http://www.w3.org/2000/svg">
<g clip-path="url(#clip0_9_4)">
<rect width="1000" height="825" fill="white"/>
<g filter="url(#filter0_f_9_4)">
<circle cx="104" cy="64" r="136" fill="#25B29F"/>
<path d="M492 318C492 432.875 218.875 526 104 526C-10.8752 526 -104 432.875 -104 318C-104 203.125 13.1248 70 128 70C242.875 70 492 203.125 492 318Z" fill="#1F7FBF"/>
<circle cx="104" cy="600" r="166" fill="#20C983"/>
<path d="M622 110C622 231.503 649.503 486 528 486C406.497 486 182 231.503 182 110C182 -11.5026 280.497 -110 402 -110C523.503 -110 622 -11.5026 622 110Z" fill="#1FBF4F"/>
<circle cx="704" cy="88" r="144" fill="#20C983"/>
<path d="M1088 120.884C1088 240.177 843.294 336.884 724 336.884C604.706 336.884 508 240.177 508 120.884C508 1.59041 604.706 -95.1161 724 -95.1161C843.294 -95.1161 1088 1.59041 1088 120.884Z" fill="#20B2C9"/>
<circle cx="646" cy="362" r="202" fill="#1F7FBF"/>
<path d="M828 450C828 588.623 540.623 734 402 734C263.377 734 151 621.623 151 483C151 344.376 176 62 402 232C540.623 232 828 311.377 828 450Z" fill="#25B29F"/>
<circle cx="847.5" cy="465.5" r="233.5" fill="#1FBF4F"/>
<path d="M1145 652.5C1145 830.612 1000.61 975 822.5 975C644.388 975 380 810 588 622C588 443.888 644.388 330 822.5 330C1000.61 330 1145 474.388 1145 652.5Z" fill="#20B2C9"/>
<path d="M460 693.5C460 868.85 455.85 1011 280.5 1011C105.15 1011 -37 868.85 -37 693.5C-37 518.15 105.15 410 280.5 410C455.85 410 460 518.15 460 693.5Z" fill="#1FBF4F"/>
</g>
<path d="M317.192 217.2C322.995 217.2 327.56 218.587 330.888 221.36C334.216 224.133 335.88 227.952 335.88 232.816C335.88 237.68 334.216 241.499 330.888 244.272C327.56 247.045 322.995 248.432 317.192 248.432H306.12V262H299.72V217.2H317.192ZM317 242.864C321.053 242.864 324.147 242.011 326.28 240.304C328.413 238.555 329.48 236.059 329.48 232.816C329.48 229.573 328.413 227.099 326.28 225.392C324.147 223.643 321.053 222.768 317 222.768H306.12V242.864H317ZM374.59 228.08L358.142 265.392C356.691 268.848 354.985 271.28 353.022 272.688C351.102 274.096 348.777 274.8 346.046 274.8C344.382 274.8 342.761 274.523 341.182 273.968C339.646 273.456 338.366 272.688 337.342 271.664L339.966 267.056C341.715 268.72 343.742 269.552 346.046 269.552C347.539 269.552 348.777 269.147 349.758 268.336C350.782 267.568 351.699 266.224 352.51 264.304L353.598 261.936L338.622 228.08H345.022L356.862 255.216L368.574 228.08H374.59ZM400.334 260.016C399.438 260.784 398.328 261.381 397.006 261.808C395.683 262.192 394.318 262.384 392.91 262.384C389.496 262.384 386.851 261.467 384.974 259.632C383.096 257.797 382.158 255.173 382.158 251.76V233.136H376.398V228.08H382.158V220.656H388.302V228.08H398.03V233.136H388.302V251.504C388.302 253.339 388.75 254.747 389.646 255.728C390.584 256.709 391.907 257.2 393.614 257.2C395.491 257.2 397.091 256.667 398.414 255.6L400.334 260.016ZM425.874 227.76C430.183 227.76 433.596 229.019 436.114 231.536C438.674 234.011 439.954 237.659 439.954 242.48V262H433.81V243.184C433.81 239.899 433.02 237.424 431.442 235.76C429.863 234.096 427.602 233.264 424.658 233.264C421.33 233.264 418.706 234.245 416.786 236.208C414.866 238.128 413.906 240.901 413.906 244.528V262H407.762V214.512H413.906V232.88C415.186 231.259 416.85 230 418.898 229.104C420.988 228.208 423.314 227.76 425.874 227.76ZM466.04 262.384C462.669 262.384 459.64 261.637 456.952 260.144C454.264 258.651 452.152 256.603 450.616 254C449.122 251.355 448.376 248.368 448.376 245.04C448.376 241.712 449.122 238.747 450.616 236.144C452.152 233.499 454.264 231.451 456.952 230C459.64 228.507 462.669 227.76 466.04 227.76C469.41 227.76 472.418 228.507 475.064 230C477.752 231.451 479.842 233.499 481.336 236.144C482.872 238.747 483.64 241.712 483.64 245.04C483.64 248.368 482.872 251.355 481.336 254C479.842 256.603 477.752 258.651 475.064 260.144C472.418 261.637 469.41 262.384 466.04 262.384ZM466.04 257.008C468.216 257.008 470.157 256.517 471.864 255.536C473.613 254.512 474.978 253.104 475.96 251.312C476.941 249.477 477.432 247.387 477.432 245.04C477.432 242.693 476.941 240.624 475.96 238.832C474.978 236.997 473.613 235.589 471.864 234.608C470.157 233.627 468.216 233.136 466.04 233.136C463.864 233.136 461.901 233.627 460.152 234.608C458.445 235.589 457.08 236.997 456.056 238.832C455.074 240.624 454.584 242.693 454.584 245.04C454.584 247.387 455.074 249.477 456.056 251.312C457.08 253.104 458.445 254.512 460.152 255.536C461.901 256.517 463.864 257.008 466.04 257.008ZM510.249 227.76C514.558 227.76 517.971 229.019 520.489 231.536C523.049 234.011 524.329 237.659 524.329 242.48V262H518.185V243.184C518.185 239.899 517.395 237.424 515.817 235.76C514.238 234.096 511.977 233.264 509.033 233.264C505.705 233.264 503.081 234.245 501.161 236.208C499.241 238.128 498.281 240.901 498.281 244.528V262H492.137V228.08H498.025V233.2C499.262 231.451 500.926 230.107 503.017 229.168C505.15 228.229 507.561 227.76 510.249 227.76ZM570.999 227.76C574.284 227.76 577.228 228.485 579.831 229.936C582.433 231.387 584.46 233.413 585.911 236.016C587.404 238.619 588.151 241.627 588.151 245.04C588.151 248.453 587.404 251.483 585.911 254.128C584.46 256.731 582.433 258.757 579.831 260.208C577.228 261.659 574.284 262.384 570.999 262.384C568.567 262.384 566.327 261.915 564.279 260.976C562.273 260.037 560.567 258.672 559.159 256.88V274.416H553.015V228.08H558.903V233.456C560.268 231.579 561.996 230.171 564.087 229.232C566.177 228.251 568.481 227.76 570.999 227.76ZM570.487 257.008C572.663 257.008 574.604 256.517 576.311 255.536C578.06 254.512 579.425 253.104 580.407 251.312C581.431 249.477 581.943 247.387 581.943 245.04C581.943 242.693 581.431 240.624 580.407 238.832C579.425 236.997 578.06 235.589 576.311 234.608C574.604 233.627 572.663 233.136 570.487 233.136C568.353 233.136 566.412 233.648 564.663 234.672C562.956 235.653 561.591 237.04 560.567 238.832C559.585 240.624 559.095 242.693 559.095 245.04C559.095 247.387 559.585 249.477 560.567 251.312C561.548 253.104 562.913 254.512 564.663 255.536C566.412 256.517 568.353 257.008 570.487 257.008ZM608.861 227.76C613.554 227.76 617.138 228.912 619.613 231.216C622.13 233.52 623.389 236.955 623.389 241.52V262H617.565V257.52C616.541 259.099 615.069 260.315 613.149 261.168C611.271 261.979 609.031 262.384 606.429 262.384C602.631 262.384 599.581 261.467 597.277 259.632C595.015 257.797 593.885 255.387 593.885 252.4C593.885 249.413 594.973 247.024 597.149 245.232C599.325 243.397 602.781 242.48 607.517 242.48H617.245V241.264C617.245 238.619 616.477 236.592 614.941 235.184C613.405 233.776 611.143 233.072 608.157 233.072C606.151 233.072 604.189 233.413 602.269 234.096C600.349 234.736 598.727 235.611 597.405 236.72L594.845 232.112C596.594 230.704 598.685 229.637 601.117 228.912C603.549 228.144 606.13 227.76 608.861 227.76ZM607.453 257.648C609.799 257.648 611.826 257.136 613.533 256.112C615.239 255.045 616.477 253.552 617.245 251.632V246.896H607.773C602.567 246.896 599.965 248.645 599.965 252.144C599.965 253.851 600.626 255.195 601.949 256.176C603.271 257.157 605.106 257.648 607.453 257.648ZM652.258 244.336C654.519 244.933 656.268 245.893 657.506 247.216C658.743 248.539 659.362 250.181 659.362 252.144C659.362 254.149 658.679 255.941 657.314 257.52C655.948 259.056 654.05 260.272 651.618 261.168C649.228 262.021 646.54 262.448 643.554 262.448C641.036 262.448 638.562 262.128 636.13 261.488C633.74 260.805 631.607 259.845 629.73 258.608L631.586 253.936C633.207 254.96 635.063 255.771 637.154 256.368C639.244 256.923 641.356 257.2 643.49 257.2C646.391 257.2 648.695 256.709 650.402 255.728C652.151 254.704 653.026 253.339 653.026 251.632C653.026 250.053 652.322 248.837 650.914 247.984C649.548 247.131 647.607 246.704 645.09 246.704H638.882V242.288H644.642C646.946 242.288 648.759 241.883 650.082 241.072C651.404 240.261 652.066 239.152 652.066 237.744C652.066 236.208 651.276 235.013 649.698 234.16C648.162 233.307 646.071 232.88 643.426 232.88C640.055 232.88 636.492 233.755 632.738 235.504L631.074 230.768C635.212 228.677 639.543 227.632 644.066 227.632C646.796 227.632 649.25 228.016 651.426 228.784C653.602 229.552 655.308 230.64 656.546 232.048C657.783 233.456 658.402 235.056 658.402 236.848C658.402 238.512 657.847 240.005 656.738 241.328C655.628 242.651 654.135 243.653 652.258 244.336ZM686.686 227.76C689.971 227.76 692.915 228.485 695.518 229.936C698.121 231.387 700.147 233.413 701.598 236.016C703.091 238.619 703.838 241.627 703.838 245.04C703.838 248.453 703.091 251.483 701.598 254.128C700.147 256.731 698.121 258.757 695.518 260.208C692.915 261.659 689.971 262.384 686.686 262.384C684.254 262.384 682.014 261.915 679.966 260.976C677.961 260.037 676.254 258.672 674.846 256.88V274.416H668.702V228.08H674.59V233.456C675.955 231.579 677.683 230.171 679.774 229.232C681.865 228.251 684.169 227.76 686.686 227.76ZM686.174 257.008C688.35 257.008 690.291 256.517 691.998 255.536C693.747 254.512 695.113 253.104 696.094 251.312C697.118 249.477 697.63 247.387 697.63 245.04C697.63 242.693 697.118 240.624 696.094 238.832C695.113 236.997 693.747 235.589 691.998 234.608C690.291 233.627 688.35 233.136 686.174 233.136C684.041 233.136 682.099 233.648 680.35 234.672C678.643 235.653 677.278 237.04 676.254 238.832C675.273 240.624 674.782 242.693 674.782 245.04C674.782 247.387 675.273 249.477 676.254 251.312C677.235 253.104 678.601 254.512 680.35 255.536C682.099 256.517 684.041 257.008 686.174 257.008ZM724.548 227.76C729.241 227.76 732.825 228.912 735.3 231.216C737.817 233.52 739.076 236.955 739.076 241.52V262H733.252V257.52C732.228 259.099 730.756 260.315 728.836 261.168C726.959 261.979 724.719 262.384 722.116 262.384C718.319 262.384 715.268 261.467 712.964 259.632C710.703 257.797 709.572 255.387 709.572 252.4C709.572 249.413 710.66 247.024 712.836 245.232C715.012 243.397 718.468 242.48 723.204 242.48H732.932V241.264C732.932 238.619 732.164 236.592 730.628 235.184C729.092 233.776 726.831 233.072 723.844 233.072C721.839 233.072 719.876 233.413 717.956 234.096C716.036 234.736 714.415 235.611 713.092 236.72L710.532 232.112C712.281 230.704 714.372 229.637 716.804 228.912C719.236 228.144 721.817 227.76 724.548 227.76ZM723.14 257.648C725.487 257.648 727.513 257.136 729.22 256.112C730.927 255.045 732.164 253.552 732.932 251.632V246.896H723.46C718.255 246.896 715.652 248.645 715.652 252.144C715.652 253.851 716.313 255.195 717.636 256.176C718.959 257.157 720.793 257.648 723.14 257.648ZM767.42 229.232C770.577 229.232 773.393 229.936 775.868 231.344C778.342 232.752 780.262 234.715 781.628 237.232C783.036 239.707 783.74 242.544 783.74 245.744C783.74 249.029 782.993 251.952 781.5 254.512C780.049 257.029 777.98 258.992 775.292 260.4C772.646 261.808 769.617 262.512 766.204 262.512C760.444 262.512 755.985 260.549 752.828 256.624C749.713 252.656 748.156 247.088 748.156 239.92C748.156 232.965 749.585 227.525 752.444 223.6C755.302 219.632 759.676 217.008 765.564 215.728L781.052 212.272L781.948 217.904L767.676 220.976C763.238 221.957 759.932 223.621 757.756 225.968C755.58 228.315 754.342 231.685 754.044 236.08C755.494 233.904 757.372 232.219 759.676 231.024C761.98 229.829 764.561 229.232 767.42 229.232ZM766.332 257.392C768.508 257.392 770.428 256.901 772.092 255.92C773.798 254.939 775.121 253.595 776.06 251.888C776.998 250.139 777.468 248.155 777.468 245.936C777.468 242.565 776.444 239.856 774.396 237.808C772.348 235.76 769.66 234.736 766.332 234.736C763.004 234.736 760.294 235.76 758.204 237.808C756.156 239.856 755.132 242.565 755.132 245.936C755.132 248.155 755.601 250.139 756.54 251.888C757.521 253.595 758.865 254.939 760.572 255.92C762.278 256.901 764.198 257.392 766.332 257.392ZM807.043 262.384C803.672 262.384 800.643 261.637 797.955 260.144C795.267 258.651 793.155 256.603 791.619 254C790.125 251.355 789.379 248.368 789.379 245.04C789.379 241.712 790.125 238.747 791.619 236.144C793.155 233.499 795.267 231.451 797.955 230C800.643 228.507 803.672 227.76 807.043 227.76C810.413 227.76 813.421 228.507 816.067 230C818.755 231.451 820.845 233.499 822.339 236.144C823.875 238.747 824.643 241.712 824.643 245.04C824.643 248.368 823.875 251.355 822.339 254C820.845 256.603 818.755 258.651 816.067 260.144C813.421 261.637 810.413 262.384 807.043 262.384ZM807.043 257.008C809.219 257.008 811.16 256.517 812.867 255.536C814.616 254.512 815.981 253.104 816.963 251.312C817.944 249.477 818.435 247.387 818.435 245.04C818.435 242.693 817.944 240.624 816.963 238.832C815.981 236.997 814.616 235.589 812.867 234.608C811.16 233.627 809.219 233.136 807.043 233.136C804.867 233.136 802.904 233.627 801.155 234.608C799.448 235.589 798.083 236.997 797.059 238.832C796.077 240.624 795.587 242.693 795.587 245.04C795.587 247.387 796.077 249.477 797.059 251.312C798.083 253.104 799.448 254.512 801.155 255.536C802.904 256.517 804.867 257.008 807.043 257.008ZM857.545 233.456H845.128V262H838.985V233.456H826.569V228.08H857.545V233.456ZM877.011 247.664H869.971V262H863.827V228.08H869.971V242.416H877.139L888.147 228.08H894.739L881.875 244.4L895.635 262H888.403L877.011 247.664ZM913.548 227.76C918.241 227.76 921.825 228.912 924.3 231.216C926.817 233.52 928.076 236.955 928.076 241.52V262H922.252V257.52C921.228 259.099 919.756 260.315 917.836 261.168C915.959 261.979 913.719 262.384 911.116 262.384C907.319 262.384 904.268 261.467 901.964 259.632C899.703 257.797 898.572 255.387 898.572 252.4C898.572 249.413 899.66 247.024 901.836 245.232C904.012 243.397 907.468 242.48 912.204 242.48H921.932V241.264C921.932 238.619 921.164 236.592 919.628 235.184C918.092 233.776 915.831 233.072 912.844 233.072C910.839 233.072 908.876 233.413 906.956 234.096C905.036 234.736 903.415 235.611 902.092 236.72L899.532 232.112C901.281 230.704 903.372 229.637 905.804 228.912C908.236 228.144 910.817 227.76 913.548 227.76ZM912.14 257.648C914.487 257.648 916.513 257.136 918.22 256.112C919.927 255.045 921.164 253.552 921.932 251.632V246.896H912.46C907.255 246.896 904.652 248.645 904.652 252.144C904.652 253.851 905.313 255.195 906.636 256.176C907.959 257.157 909.793 257.648 912.14 257.648Z" fill="white"/>
</g>
<defs>
<filter id="filter0_f_9_4" x="-304" y="-310" width="1649" height="1521" filterUnits="userSpaceOnUse" color-interpolation-filters="sRGB">
<feFlood flood-opacity="0" result="BackgroundImageFix"/>
<feBlend mode="normal" in="SourceGraphic" in2="BackgroundImageFix" result="shape"/>
<feGaussianBlur stdDeviation="100" result="effect1_foregroundBlur_9_4"/>
</filter>
<clipPath id="clip0_9_4">
<rect width="1000" height="825" fill="white"/>
</clipPath>
</defs>
</svg>
