<svg width="1000" height="825" viewBox="0 0 1000 825" fill="none" xmlns="http://www.w3.org/2000/svg">
<g clip-path="url(#clip0_9_4)">
<rect width="1000" height="825" fill="white"/>
<g filter="url(#filter0_f_9_4)">
<circle cx="104" cy="64" r="136" fill="#25B29F"/>
<path d="M492 318C492 432.875 218.875 526 104 526C-10.8752 526 -104 432.875 -104 318C-104 203.125 13.1248 70 128 70C242.875 70 492 203.125 492 318Z" fill="#1F7FBF"/>
<circle cx="104" cy="600" r="166" fill="#20C983"/>
<path d="M622 110C622 231.503 649.503 486 528 486C406.497 486 182 231.503 182 110C182 -11.5026 280.497 -110 402 -110C523.503 -110 622 -11.5026 622 110Z" fill="#1FBF4F"/>
<circle cx="704" cy="88" r="144" fill="#20C983"/>
<path d="M1088 120.884C1088 240.177 843.294 336.884 724 336.884C604.706 336.884 508 240.177 508 120.884C508 1.59041 604.706 -95.1161 724 -95.1161C843.294 -95.1161 1088 1.59041 1088 120.884Z" fill="#20B2C9"/>
<circle cx="646" cy="362" r="202" fill="#1F7FBF"/>
<path d="M828 450C828 588.623 540.623 734 402 734C263.377 734 151 621.623 151 483C151 344.376 176 62 402 232C540.623 232 828 311.377 828 450Z" fill="#25B29F"/>
<circle cx="847.5" cy="465.5" r="233.5" fill="#1FBF4F"/>
<path d="M1145 652.5C1145 830.612 1000.61 975 822.5 975C644.388 975 380 810 588 622C588 443.888 644.388 330 822.5 330C1000.61 330 1145 474.388 1145 652.5Z" fill="#20B2C9"/>
<path d="M460 693.5C460 868.85 455.85 1011 280.5 1011C105.15 1011 -37 868.85 -37 693.5C-37 518.15 105.15 410 280.5 410C455.85 410 460 518.15 460 693.5Z" fill="#1FBF4F"/>
</g>
<path d="M317.448 217.2C323.251 217.2 327.816 218.587 331.144 221.36C334.472 224.133 336.136 227.952 336.136 232.816C336.136 237.68 334.472 241.499 331.144 244.272C327.816 247.045 323.251 248.432 317.448 248.432H306.376V262H299.976V217.2H317.448ZM317.256 242.864C321.309 242.864 324.403 242.011 326.536 240.304C328.669 238.555 329.736 236.059 329.736 232.816C329.736 229.573 328.669 227.099 326.536 225.392C324.403 223.643 321.309 222.768 317.256 222.768H306.376V242.864H317.256ZM355.798 227.76C360.491 227.76 364.075 228.912 366.55 231.216C369.067 233.52 370.326 236.955 370.326 241.52V262H364.502V257.52C363.478 259.099 362.006 260.315 360.086 261.168C358.209 261.979 355.969 262.384 353.366 262.384C349.569 262.384 346.518 261.467 344.214 259.632C341.953 257.797 340.822 255.387 340.822 252.4C340.822 249.413 341.91 247.024 344.086 245.232C346.262 243.397 349.718 242.48 354.454 242.48H364.182V241.264C364.182 238.619 363.414 236.592 361.878 235.184C360.342 233.776 358.081 233.072 355.094 233.072C353.089 233.072 351.126 233.413 349.206 234.096C347.286 234.736 345.665 235.611 344.342 236.72L341.782 232.112C343.531 230.704 345.622 229.637 348.054 228.912C350.486 228.144 353.067 227.76 355.798 227.76ZM354.39 257.648C356.737 257.648 358.763 257.136 360.47 256.112C362.177 255.045 363.414 253.552 364.182 251.632V246.896H354.71C349.505 246.896 346.902 248.645 346.902 252.144C346.902 253.851 347.563 255.195 348.886 256.176C350.209 257.157 352.043 257.648 354.39 257.648ZM399.195 244.336C401.456 244.933 403.206 245.893 404.443 247.216C405.68 248.539 406.299 250.181 406.299 252.144C406.299 254.149 405.616 255.941 404.251 257.52C402.886 259.056 400.987 260.272 398.555 261.168C396.166 262.021 393.478 262.448 390.491 262.448C387.974 262.448 385.499 262.128 383.067 261.488C380.678 260.805 378.544 259.845 376.667 258.608L378.523 253.936C380.144 254.96 382 255.771 384.091 256.368C386.182 256.923 388.294 257.2 390.427 257.2C393.328 257.2 395.632 256.709 397.339 255.728C399.088 254.704 399.963 253.339 399.963 251.632C399.963 250.053 399.259 248.837 397.851 247.984C396.486 247.131 394.544 246.704 392.027 246.704H385.819V242.288H391.579C393.883 242.288 395.696 241.883 397.019 241.072C398.342 240.261 399.003 239.152 399.003 237.744C399.003 236.208 398.214 235.013 396.635 234.16C395.099 233.307 393.008 232.88 390.363 232.88C386.992 232.88 383.43 233.755 379.675 235.504L378.011 230.768C382.15 228.677 386.48 227.632 391.003 227.632C393.734 227.632 396.187 228.016 398.363 228.784C400.539 229.552 402.246 230.64 403.483 232.048C404.72 233.456 405.339 235.056 405.339 236.848C405.339 238.512 404.784 240.005 403.675 241.328C402.566 242.651 401.072 243.653 399.195 244.336ZM433.624 227.76C436.909 227.76 439.853 228.485 442.456 229.936C445.058 231.387 447.085 233.413 448.536 236.016C450.029 238.619 450.776 241.627 450.776 245.04C450.776 248.453 450.029 251.483 448.536 254.128C447.085 256.731 445.058 258.757 442.456 260.208C439.853 261.659 436.909 262.384 433.624 262.384C431.192 262.384 428.952 261.915 426.904 260.976C424.898 260.037 423.192 258.672 421.784 256.88V274.416H415.64V228.08H421.528V233.456C422.893 231.579 424.621 230.171 426.712 229.232C428.802 228.251 431.106 227.76 433.624 227.76ZM433.112 257.008C435.288 257.008 437.229 256.517 438.936 255.536C440.685 254.512 442.05 253.104 443.032 251.312C444.056 249.477 444.568 247.387 444.568 245.04C444.568 242.693 444.056 240.624 443.032 238.832C442.05 236.997 440.685 235.589 438.936 234.608C437.229 233.627 435.288 233.136 433.112 233.136C430.978 233.136 429.037 233.648 427.288 234.672C425.581 235.653 424.216 237.04 423.192 238.832C422.21 240.624 421.72 242.693 421.72 245.04C421.72 247.387 422.21 249.477 423.192 251.312C424.173 253.104 425.538 254.512 427.288 255.536C429.037 256.517 430.978 257.008 433.112 257.008ZM471.486 227.76C476.179 227.76 479.763 228.912 482.238 231.216C484.755 233.52 486.014 236.955 486.014 241.52V262H480.19V257.52C479.166 259.099 477.694 260.315 475.774 261.168C473.896 261.979 471.656 262.384 469.054 262.384C465.256 262.384 462.206 261.467 459.902 259.632C457.64 257.797 456.51 255.387 456.51 252.4C456.51 249.413 457.598 247.024 459.774 245.232C461.95 243.397 465.406 242.48 470.142 242.48H479.87V241.264C479.87 238.619 479.102 236.592 477.566 235.184C476.03 233.776 473.768 233.072 470.782 233.072C468.776 233.072 466.814 233.413 464.894 234.096C462.974 234.736 461.352 235.611 460.03 236.72L457.47 232.112C459.219 230.704 461.31 229.637 463.742 228.912C466.174 228.144 468.755 227.76 471.486 227.76ZM470.078 257.648C472.424 257.648 474.451 257.136 476.158 256.112C477.864 255.045 479.102 253.552 479.87 251.632V246.896H470.398C465.192 246.896 462.59 248.645 462.59 252.144C462.59 253.851 463.251 255.195 464.574 256.176C465.896 257.157 467.731 257.648 470.078 257.648ZM514.357 229.232C517.514 229.232 520.33 229.936 522.805 231.344C525.28 232.752 527.2 234.715 528.565 237.232C529.973 239.707 530.677 242.544 530.677 245.744C530.677 249.029 529.93 251.952 528.437 254.512C526.986 257.029 524.917 258.992 522.229 260.4C519.584 261.808 516.554 262.512 513.141 262.512C507.381 262.512 502.922 260.549 499.765 256.624C496.65 252.656 495.093 247.088 495.093 239.92C495.093 232.965 496.522 227.525 499.381 223.6C502.24 219.632 506.613 217.008 512.501 215.728L527.989 212.272L528.885 217.904L514.613 220.976C510.176 221.957 506.869 223.621 504.693 225.968C502.517 228.315 501.28 231.685 500.981 236.08C502.432 233.904 504.309 232.219 506.613 231.024C508.917 229.829 511.498 229.232 514.357 229.232ZM513.269 257.392C515.445 257.392 517.365 256.901 519.029 255.92C520.736 254.939 522.058 253.595 522.997 251.888C523.936 250.139 524.405 248.155 524.405 245.936C524.405 242.565 523.381 239.856 521.333 237.808C519.285 235.76 516.597 234.736 513.269 234.736C509.941 234.736 507.232 235.76 505.141 237.808C503.093 239.856 502.069 242.565 502.069 245.936C502.069 248.155 502.538 250.139 503.477 251.888C504.458 253.595 505.802 254.939 507.509 255.92C509.216 256.901 511.136 257.392 513.269 257.392ZM553.98 262.384C550.609 262.384 547.58 261.637 544.892 260.144C542.204 258.651 540.092 256.603 538.556 254C537.063 251.355 536.316 248.368 536.316 245.04C536.316 241.712 537.063 238.747 538.556 236.144C540.092 233.499 542.204 231.451 544.892 230C547.58 228.507 550.609 227.76 553.98 227.76C557.351 227.76 560.359 228.507 563.004 230C565.692 231.451 567.783 233.499 569.276 236.144C570.812 238.747 571.58 241.712 571.58 245.04C571.58 248.368 570.812 251.355 569.276 254C567.783 256.603 565.692 258.651 563.004 260.144C560.359 261.637 557.351 262.384 553.98 262.384ZM553.98 257.008C556.156 257.008 558.097 256.517 559.804 255.536C561.553 254.512 562.919 253.104 563.9 251.312C564.881 249.477 565.372 247.387 565.372 245.04C565.372 242.693 564.881 240.624 563.9 238.832C562.919 236.997 561.553 235.589 559.804 234.608C558.097 233.627 556.156 233.136 553.98 233.136C551.804 233.136 549.841 233.627 548.092 234.608C546.385 235.589 545.02 236.997 543.996 238.832C543.015 240.624 542.524 242.693 542.524 245.04C542.524 247.387 543.015 249.477 543.996 251.312C545.02 253.104 546.385 254.512 548.092 255.536C549.841 256.517 551.804 257.008 553.98 257.008ZM604.482 233.456H592.066V262H585.922V233.456H573.506V228.08H604.482V233.456ZM623.949 247.664H616.909V262H610.765V228.08H616.909V242.416H624.077L635.085 228.08H641.677L628.813 244.4L642.573 262H635.341L623.949 247.664ZM660.486 227.76C665.179 227.76 668.763 228.912 671.238 231.216C673.755 233.52 675.014 236.955 675.014 241.52V262H669.19V257.52C668.166 259.099 666.694 260.315 664.774 261.168C662.896 261.979 660.656 262.384 658.054 262.384C654.256 262.384 651.206 261.467 648.902 259.632C646.64 257.797 645.51 255.387 645.51 252.4C645.51 249.413 646.598 247.024 648.774 245.232C650.95 243.397 654.406 242.48 659.142 242.48H668.87V241.264C668.87 238.619 668.102 236.592 666.566 235.184C665.03 233.776 662.768 233.072 659.782 233.072C657.776 233.072 655.814 233.413 653.894 234.096C651.974 234.736 650.352 235.611 649.03 236.72L646.47 232.112C648.219 230.704 650.31 229.637 652.742 228.912C655.174 228.144 657.755 227.76 660.486 227.76ZM659.078 257.648C661.424 257.648 663.451 257.136 665.158 256.112C666.864 255.045 668.102 253.552 668.87 251.632V246.896H659.398C654.192 246.896 651.59 248.645 651.59 252.144C651.59 253.851 652.251 255.195 653.574 256.176C654.896 257.157 656.731 257.648 659.078 257.648Z" fill="white"/>
<path d="M476.688 317.4V351H471.984V321.576H457.104L456.768 331.416C456.608 336.056 456.224 339.816 455.616 342.696C455.04 345.576 454.112 347.752 452.832 349.224C451.552 350.664 449.824 351.384 447.648 351.384C446.656 351.384 445.648 351.256 444.624 351L444.96 346.728C445.472 346.856 445.984 346.92 446.496 346.92C447.872 346.92 448.976 346.376 449.808 345.288C450.64 344.168 451.264 342.504 451.68 340.296C452.096 338.088 452.368 335.176 452.496 331.56L453.024 317.4H476.688ZM486.386 325.56H490.994V344.088L506.594 325.56H510.77V351H506.162V332.472L490.61 351H486.386V325.56ZM540.018 325.56V351H535.41V340.728C532.658 342.008 529.922 342.648 527.202 342.648C524.034 342.648 521.586 341.912 519.858 340.44C518.13 338.968 517.266 336.76 517.266 333.816V325.56H521.874V333.528C521.874 335.288 522.418 336.616 523.506 337.512C524.626 338.408 526.178 338.856 528.162 338.856C530.402 338.856 532.818 338.296 535.41 337.176V325.56H540.018ZM548.964 325.56H553.572V336.36H568.068V325.56H572.676V351H568.068V340.344H553.572V351H548.964V325.56ZM593.108 334.2C596.308 334.232 598.756 334.968 600.452 336.408C602.148 337.848 602.996 339.88 602.996 342.504C602.996 345.256 602.068 347.384 600.212 348.888C598.388 350.36 595.764 351.08 592.34 351.048L581.636 351V325.56H586.244V334.152L593.108 334.2ZM606.788 325.56H611.396V351H606.788V325.56ZM592.004 347.544C594.084 347.576 595.652 347.16 596.708 346.296C597.796 345.432 598.34 344.152 598.34 342.456C598.34 340.792 597.812 339.576 596.756 338.808C595.7 338.04 594.116 337.64 592.004 337.608L586.244 337.512V347.496L592.004 347.544ZM620.355 325.56H624.963V344.088L640.563 325.56H644.739V351H640.131V332.472L624.579 351H620.355V325.56ZM632.259 322.248C629.891 322.248 628.051 321.688 626.739 320.568C625.427 319.416 624.755 317.768 624.723 315.624H627.843C627.875 316.808 628.275 317.768 629.043 318.504C629.843 319.208 630.899 319.56 632.211 319.56C633.523 319.56 634.579 319.208 635.379 318.504C636.179 317.768 636.595 316.808 636.627 315.624H639.843C639.811 317.768 639.123 319.416 637.779 320.568C636.435 321.688 634.595 322.248 632.259 322.248ZM677.469 351.288C674.941 351.288 672.669 350.728 670.653 349.608C668.637 348.488 667.053 346.952 665.901 345C664.781 343.016 664.221 340.776 664.221 338.28C664.221 335.784 664.781 333.56 665.901 331.608C667.053 329.624 668.637 328.088 670.653 327C672.669 325.88 674.941 325.32 677.469 325.32C679.997 325.32 682.253 325.88 684.237 327C686.253 328.088 687.821 329.624 688.941 331.608C690.093 333.56 690.669 335.784 690.669 338.28C690.669 340.776 690.093 343.016 688.941 345C687.821 346.952 686.253 348.488 684.237 349.608C682.253 350.728 679.997 351.288 677.469 351.288ZM677.469 347.256C679.101 347.256 680.557 346.888 681.837 346.152C683.149 345.384 684.173 344.328 684.909 342.984C685.645 341.608 686.013 340.04 686.013 338.28C686.013 336.52 685.645 334.968 684.909 333.624C684.173 332.248 683.149 331.192 681.837 330.456C680.557 329.72 679.101 329.352 677.469 329.352C675.837 329.352 674.365 329.72 673.053 330.456C671.773 331.192 670.749 332.248 669.981 333.624C669.245 334.968 668.877 336.52 668.877 338.28C668.877 340.04 669.245 341.608 669.981 342.984C670.749 344.328 671.773 345.384 673.053 346.152C674.365 346.888 675.837 347.256 677.469 347.256ZM720.891 325.56V351H716.283V329.592H701.931V351H697.323V325.56H720.891ZM741.28 334.2C744.48 334.232 746.928 334.968 748.624 336.408C750.32 337.848 751.168 339.88 751.168 342.504C751.168 345.256 750.24 347.384 748.384 348.888C746.56 350.36 743.936 351.08 740.512 351.048L729.808 351V325.56H734.416V334.152L741.28 334.2ZM754.96 325.56H759.568V351H754.96V325.56ZM740.176 347.544C742.256 347.576 743.824 347.16 744.88 346.296C745.968 345.432 746.512 344.152 746.512 342.456C746.512 340.792 745.984 339.576 744.928 338.808C743.872 338.04 742.288 337.64 740.176 337.608L734.416 337.512V347.496L740.176 347.544ZM787.487 329.592H778.174V351H773.567V329.592H764.255V325.56H787.487V329.592Z" fill="white"/>
</g>
<defs>
<filter id="filter0_f_9_4" x="-304" y="-310" width="1649" height="1521" filterUnits="userSpaceOnUse" color-interpolation-filters="sRGB">
<feFlood flood-opacity="0" result="BackgroundImageFix"/>
<feBlend mode="normal" in="SourceGraphic" in2="BackgroundImageFix" result="shape"/>
<feGaussianBlur stdDeviation="100" result="effect1_foregroundBlur_9_4"/>
</filter>
<clipPath id="clip0_9_4">
<rect width="1000" height="825" fill="white"/>
</clipPath>
</defs>
</svg>
